<svg xmlns="http://www.w3.org/2000/svg" viewBox="0 0 685.16 656.02"><defs><style>.cls-1{fill:#fff;}.cls-2{fill:#231f20;}.cls-3{fill:#202020;}</style></defs><title>Asset 2</title><g id="Layer_2" data-name="Layer 2"><g id="Layer_1-2" data-name="Layer 1"><path class="cls-1" d="M503.31,39.58C657,126.75,711,322,623.86,475.78S341.4,683.49,187.66,596.33-20.05,313.88,67.11,160.13A318.51,318.51,0,0,1,202.05,31.87"/><path class="cls-2" d="M190.37,13.25c2.52-.94,0-3.87,0-4.66C186.77,11.43,190.92,14.07,190.37,13.25Z"/><path class="cls-2" d="M157.21,42.83l-.23-1.7c-1.06,2.22-2.11,4.43-3.07,6.71l1.61-2.54Z"/><path class="cls-2" d="M125.34,67.45c3.53,1.13,6.14-1.34,8.73-4.55l2-2.48c.67-.83,1.39-1.62,2.11-2.37a13.54,13.54,0,0,1,4.79-3.42l1.82.45c-.2-2-.4-4.09-.55-6.1-1.65,1.46-3.26,3.25-4.91,5s-3.3,3.62-4.87,5.41C131.32,63,128.23,66.1,125.34,67.45Z"/><path class="cls-2" d="M99.85,72.35c2.75.8-1.94,4.89,4.28-3.09a7.74,7.74,0,0,1-1.12.21A35.67,35.67,0,0,1,99.85,72.35Z"/><path class="cls-2" d="M103,69.47c3-3.22-3.54.52,0,0Z"/><path class="cls-2" d="M89.86,85.09c.72-2,1.55-3.83,2.33-5.76-1.92-.13-5.75,3.45-5.22,1.3C83.88,86,85.83,86,89.86,85.09Z"/><path class="cls-2" d="M89.74,92.31,91,89.46C90.2,89.44,89.51,89.89,89.74,92.31Z"/><path class="cls-2" d="M93.79,83.44c-1,2-1.89,4-2.78,6,1.32.06,2.92,1.41,1.39-2.65C93.45,88.47,92.9,86.3,93.79,83.44Z"/><path class="cls-2" d="M97,81.51c3.25-1.38,6.7-3.74,4.37,1.94,3.39-4.27,4.16-6.79,3.07-7.32-.54-.26-1.54,0-2.85.85A23.67,23.67,0,0,0,97,81.51Z"/><path class="cls-2" d="M128.23,73.8c1.44-.44,2.84-.92,4.31-1.3l1.31-3.92c-.33,1-2.13,1.92-3.66,2.8S127.47,73.14,128.23,73.8Z"/><path class="cls-2" d="M64.33,111.07c.89,1.1,4.12.6,5.78,1.3L71.43,108C69.36,109.21,66.14,112,64.33,111.07Z"/><path class="cls-2" d="M70.11,112.38c-.66,2.16-1.31,4.3-1.86,6.5,1.71-2.25,2.58-3.68,2.78-4.67A1.44,1.44,0,0,0,70.11,112.38Z"/><path class="cls-2" d="M94.44,97.77,96,92.31l.79-2.75.87-2.7c-.4,1-.81,2-1.19,3.08l-1.1,3.13-2.15,6.22Z"/><polygon class="cls-2" points="50.31 131.39 49.64 126.59 50.14 134.65 50.31 131.39"/><path class="cls-2" d="M42.34,145.68c-.45-1.81-1.89-1.57-3.2-1.26s-2.46.7-2.48-1c-1.73,4.21-1.57,8.68-1.38,12.64C36,152.36,38.09,149,42.34,145.68Z"/><path class="cls-2" d="M35.21,162.49a35.3,35.3,0,0,0,.07-6.4A17.21,17.21,0,0,0,35.21,162.49Z"/><path class="cls-2" d="M61.53,127.33a7,7,0,0,0-6,2.06h4.58Z"/><path class="cls-2" d="M60.28,129.39h-.15c-1.54,2.22-2.63,3.75-3.1,4.41Z"/><path class="cls-2" d="M61.89,126.82c-.14.18-.24.32-.36.51C62,127.34,62.16,127.29,61.89,126.82Z"/><path class="cls-2" d="M81.3,108.05c-.34,2.08-1.11,5-1,6.94s1.22,2.78,4.71.89C84.52,112.21,80.45,114.39,81.3,108.05Z"/><path class="cls-2" d="M67.63,127l4.52-4.93c-.9-.49-2.8-.36-2.62-2.48Z"/><polygon class="cls-2" points="66.78 130.35 67.63 127 65.95 128.84 66.78 130.35"/><path class="cls-2" d="M43.87,153.9c.1,3.37-1.27,6.23-2.71,9.51a59.92,59.92,0,0,0,6.46-9.66C46.81,152.71,45.71,150.18,43.87,153.9Z"/><path class="cls-2" d="M51.87,142c0,.22-.12.46-.14.67C52.22,142.47,52.46,142.24,51.87,142Z"/><path class="cls-2" d="M26.77,195.62c.27-.11.59-.17.87-.27-.19-.12-.38-.23-.57-.36Z"/><path class="cls-2" d="M48.55,153.54a6.65,6.65,0,0,0,1.72-3.13,8.69,8.69,0,0,0,.13-3c-.38,1-.83,2-1.28,3.11s-.94,2.14-1.5,3.22C48,154.23,48.28,154.44,48.55,153.54Z"/><path class="cls-2" d="M32.57,172.3a36.18,36.18,0,0,0,4.06-3.65C34.91,169.45,31.9,171.39,32.57,172.3Z"/><path class="cls-2" d="M50.32,142.93a3.85,3.85,0,0,1,.07-.46C49.2,142.88,49.61,143,50.32,142.93Z"/><path class="cls-2" d="M50.32,142.93a15.87,15.87,0,0,0,.08,4.49,24.63,24.63,0,0,0,1.33-4.78A4.93,4.93,0,0,1,50.32,142.93Z"/><path class="cls-2" d="M46.45,213.83c-1.61-.81-2.59-3.16-2.47-5.9a10.68,10.68,0,0,1,1.09-4.23,11.3,11.3,0,0,1,3.3-3.73c-.19-6.58-12.48-7.51-20.75-4.62,1.4.75,2.6,1.25,2.43,8.15,1.32-.74,3.49-3.78,5.76-5.71s4.17-2.91,4.65.17c-.79,4.22-1.59,5.75-2.73,6.6s-2.51,1-4.09,2.67c2.67-.91,3.29,2.19,4.11,5.5s1.85,6.84,5.25,7l.22-7.53C44.25,212.42,44.91,215.4,46.45,213.83Z"/><path class="cls-2" d="M32.76,183.81l.63-2.7c-1.75,2.63-3.91,4.11-8.07,6.9-.13,4.91.75,6.25,1.74,7l5.56-12.25Z"/><path class="cls-2" d="M38.58,170c2.57,3.63,1.35,10.11,6.83,8.33,3.08-7.14-.62-6.35-.07-11.33-2.33,5.94-2.39,4.9-2.66,3.26S42,166.4,39,170.13a28.76,28.76,0,0,1,2.14-6.72c-1.56,1.82-3,3.64-4.53,5.23l.34-.16,0-.06,0,0c.68-.29,1-.33.5.12,0,.06,0,.21,0,.28A4.51,4.51,0,0,1,38.56,170c-2.32,3-1.15.1-1.06-1.16a3.88,3.88,0,0,0-.46-.4l-.06,0-3.59,12.63C35,178.85,36.39,175.72,38.58,170Z"/><path class="cls-2" d="M87.69,126.18a1.12,1.12,0,0,1-1-.22C86.63,126.87,86.71,127.3,87.69,126.18Z"/><path class="cls-2" d="M82.82,128.86c.08-1-.78-2.59,1.32-4.67,2.46-1.32,1.48,1.12,2.59,1.77.21-2,1.48-6.57-3.37-3.29l-.1,1a31.68,31.68,0,0,1-7.33,4c-2.41.92-4.32,1.32-4.29.81A27.79,27.79,0,0,0,82.82,128.86Z"/><path class="cls-2" d="M60.66,149c-1.23,3.32-2.49,6.61-3.52,10,1.83-1,3.57-2,5.46-3l-1.89-.77C64.41,150.58,61.62,150.42,60.66,149Z"/><path class="cls-2" d="M24.5,196.07l-3.28-2.81c.48,1.32,1,2.65,1.59,4l1.67,4Z"/><polygon class="cls-2" points="20.26 209.53 17.07 207.91 17.87 212.12 20.26 209.53"/><path class="cls-2" d="M468.8,589.88l2.09-2.09A10.18,10.18,0,0,0,468.8,589.88Z"/><path class="cls-2" d="M450.15,597.34l.15,1.81C450.85,597.93,451,597.13,450.15,597.34Z"/><path class="cls-2" d="M80.79,535.17c.18,2.84.08,6.17.37,8.32s.87,3.22,2.19,1.7l2-3.62a13.21,13.21,0,0,1-1.76-1.51,12.88,12.88,0,0,1-1.27-1.61A12.69,12.69,0,0,1,80.79,535.17Z"/><path class="cls-2" d="M284.39,631.15l-1-1.4-3.62,3.1C281.18,632.31,282.75,631.75,284.39,631.15Z"/><path class="cls-2" d="M290.33,615.83l4.89,3.51A20.52,20.52,0,0,0,290.33,615.83Z"/><path class="cls-2" d="M555.28,524.64c-.19-1.68-.37-3.32-.6-5C551.21,523.12,554.16,523,555.28,524.64Z"/><path class="cls-2" d="M5.85,351.7a31.7,31.7,0,0,0-1.28,10.19C6.21,356.79,9.22,352.64,5.85,351.7Z"/><path class="cls-2" d="M477.63,631.23c1.51-1.39,2-2.43,1.56-3.21C477.63,629.38,476.87,630.5,477.63,631.23Z"/><path class="cls-2" d="M6.31,373.35c.28-.76.37-1.48.59-2.24a31.22,31.22,0,0,1-2.33-9.22C3.45,365.63,3,369.89,6.31,373.35Z"/><path class="cls-2" d="M598.66,161.25a7.5,7.5,0,0,1-.06-1C598.11,160.44,598.29,160.79,598.66,161.25Z"/><path class="cls-2" d="M543.67,45.3a40.13,40.13,0,0,1,4.48,3C547.55,47.48,546.23,46.52,543.67,45.3Z"/><path class="cls-2" d="M5.14,264.27c.17-3-.36-.54,0,0Z"/><path class="cls-2" d="M22.89,253a2.48,2.48,0,0,0,1.65,1.49A3.16,3.16,0,0,1,22.89,253Z"/><path class="cls-2" d="M36,396.54l0,.24C36.56,395.78,36.45,396,36,396.54Z"/><path class="cls-2" d="M7.6,260.11a15.44,15.44,0,0,0-1,1.67,20.35,20.35,0,0,0-.78,1.92A29.15,29.15,0,0,0,7.6,260.11Z"/><path class="cls-2" d="M5.67,260.39c.37-1,.61-1.77.86-2.51C6,257.39,5.5,257.66,5.67,260.39Z"/><path class="cls-2" d="M4.76,268.44a21.72,21.72,0,0,1,1.08-4.75c-.35.54-.6.75-.71.57C5.07,265.15,5,266.39,4.76,268.44Z"/><path class="cls-2" d="M649.79,366.93a5.32,5.32,0,0,1,.44-.51C649,363.48,649.1,364.7,649.79,366.93Z"/><path class="cls-2" d="M161.15,557c-.12,0-.24,0-.35,0l.22.35Z"/><path class="cls-2" d="M170.42,560.27c-6,1.54-7.58-.36-9.39-3q-2.18,5.4-4.26,10.87Q163.71,564.3,170.42,560.27Z"/><path class="cls-2" d="M510.19,565.68l-7.34.62c3.38-9.15,9-10.43,1.32-11.3a5.86,5.86,0,0,1-.49,7,17.78,17.78,0,0,1-2.9,3,42.07,42.07,0,0,1-3.76,2.64c-2.61,1.71-5.21,3.43-6.84,5.42a8.62,8.62,0,0,0-1,1.55,5.94,5.94,0,0,0-.61,1.62,6,6,0,0,0,.53,3.77l-5-.26c1.14-.47,1-1.19,2.11-1.66-5.06-.64-5.36,2-5.78,5.32a13.68,13.68,0,0,1-1.29,5,7.86,7.86,0,0,1-5,3.67c-3.87.78-7,.28-5.24-2.14-1.07,1-2.12,2.14-3.22,3.14l-3.33,3c-2.38.72-2.63-1.48-.28-2.18l-5.78,2.9-2.9,1.45c-1,.48-2,.88-3,1.33l0-.37a49.49,49.49,0,0,1-5.6,8.5c-3.71-.55,1.16-1.79-.14-2.94-1.95,1.74-3.91,3.52-6,5.12-1.9-1.08-1.63-2.8-.3-4.35a12.93,12.93,0,0,1,6.08-3.71c-5.14-4.67-6.18-3.39-8.09-1.39s-4.6,5-12.41,3.59c2-1.08,4-2.27,5.95-3.39a11.67,11.67,0,0,0-4.27-2.55,15.57,15.57,0,0,0-4.11-.56c-2.84-.1-6,.22-10-1,1.09.89,5.29,2.64,8.5,4.75s5.39,4.57,2,7c-2.36-.36-5.22-.09-8.73,3.33-.52-2.14-1.68-2.61-3.36-2.55a40.35,40.35,0,0,0-6.31,1.48l-.79-5.72a9.09,9.09,0,0,0-4.22,4.16c-.73,1.42-1.16,3-2.55,4.47-6.19.36-8.09-3.86-10-7.37-4.78.27-2.93,1.79-1.23,3.59s3.28,3.9-2.42,5.26a23.22,23.22,0,0,0-11.22.83c-.9.27-1.81.62-2.74,1s-1.9.67-2.9,1.06c-2,.78-4.16,1.69-6.59,2.69-5.84-1.67.85-3.58-1.28-5.11-1.62,1.61-3.26,3.29-4.93,4.79-1.26-.11-.88-1.52-.69-2.23-4.27,1.8-.22,5.76-7.1,7.36-.47,1.59-1.6,1.81-3.15,1.36a13.85,13.85,0,0,1-2.61-1.11l-3.05-1.72a23.85,23.85,0,0,0-6.8-2.83,8.79,8.79,0,0,0-6.93,1.41c-1.95-1.82,1.27-3.43.79-5.71-5.87,1.83-8.45,2.46-10.77,3.32s-4.4,1.82-9.63,4.31l-7.55-4.88c2.61,2.56,1.87,4.83-.55,6.86s-6.43,3.53-10.28,4.95a54.44,54.44,0,0,0,4.45,5.73l-11.79.88c-1.16-1.19.4-2.9,2.71-4.91-.85.32-1.67.64-2.32,1-1.75-1.46-1.91-2.95-1.22-4.31a13.84,13.84,0,0,1,4-4c1.08,1.36,2.15,2.8,3.2,4.23,3.39-2.91,6.55-6.25,6.61-9.67a7.81,7.81,0,0,1-3.76.86c.87-.8,1.46-1.55,1.26-2.18s-1.58.38-3.61,1.49l-1.08-6.74-1.11,2.38c-4.26-2.32-8.42-4.79-12.54-7.14l-2.11.77-2.1.74-4.26,1.56c-2.88,1.06-5.87,2.13-9,3-.79.22-1.6.44-2.42.63s-1.63.31-2.46.44a50.74,50.74,0,0,1-5.18.54,48.53,48.53,0,0,1-5.57,0,32,32,0,0,1-6-.85c5.49-2.83,3.56-6.84,5.79-12,.95,3.59,4.16,4,7.93,4s8.12-.23,11.9,1.41c-3.93-1.81-2.19-4.07-.89-4.64l-1.94.13-1.92,0-3.86.06-7.81.09c1-2.08.52-3.14-.51-4.06a35.12,35.12,0,0,1-4-3.4c-.33,4.74-3.4,5.1-7.27,4.29-1.92-.41-4.05-1.07-6.09-1.68a19.55,19.55,0,0,0-5.62-1.25,4.43,4.43,0,0,1,2.9-3.17,5.53,5.53,0,0,1,2.85,0,11.29,11.29,0,0,1,1.85.64,20.92,20.92,0,0,1,2.23,1,6.82,6.82,0,0,0-1.94-2.44,3.88,3.88,0,0,0-2.21-.81,12.61,12.61,0,0,0-5,1.3c-3.5,1.41-7.17,2.92-9.49-1.4,1.64.74,2.33,1.54,3.65.46a8.28,8.28,0,0,1-4.12-.68,16.94,16.94,0,0,1-3.88-2.33c-2.22-1.78-3.37-3.75-1.69-4.34l1.6.78c-1.24-.81-2.67-1.69-4.22-2.59s-3.26-1.78-4.95-2.81a100,100,0,0,0-10.75-5.45c-1.83-.73-3.51-1.55-5.18-2.15a30.21,30.21,0,0,0-4.68-1.36c-2.91-.56-5.32-.38-6.79.94a61.84,61.84,0,0,1,8-7.58c-2.65.78-5.38,1.61-8,2.3s-5.37,1.34-8.09,2-5.49,1.26-8.27,1.85l-4.2.88c-1.42.3-2.82.56-4.21.79,2.81-1.94,5.18-7.19,8.17-11.47a18.45,18.45,0,0,1,5-5.21,7.86,7.86,0,0,1,6.51-.92c-1.72-2.35-3.59-5.42-9.59-7.37.84,1.91-2.35,10.41-4.79,9.16-.5-5.17-.81-6.7-1.39-8.28-.28-.8-.66-1.56-1.07-2.84s-.9-3-1.47-5.68c1.17,3-8.06,8.51-11.32,5.07,1.58-.64,6.67-7.69,8.61-7.36q-3.78,0-7.64-.14c-2.54-.1-5-.28-7.59-.46,3.31.76,6.38-5.75,6.68-9.53-.59,2.2-6.71-6.94-9.29-8.59l1.44,5.15c-3.66-5.26-8.39-5.21-13.32-5.2-1.23,0-2.48,0-3.7-.07a17.61,17.61,0,0,1-3.57-.64,12.33,12.33,0,0,1-6.55-4.71c2.66,0,12.45-5.07,9.42-10.83a105,105,0,0,1-17.41,1.58,55.26,55.26,0,0,1-11.4-1.14,23.86,23.86,0,0,1-9.38-4.24l1.2-3.57-4-3c-1.33-1-2.56-2.08-3.85-3.12,4.74.55,12.94,1.91,20.93,3.37l11.65,2.18c3.67.68,6.92,1.37,9.4,2.06-.9-5.21,2-3.14-2.32-8.65.83-3.57,5.69.64,7,2.17-1.33-2.35-2.7-4.66-4-7L99.89,478c-2.33,2-5.31.2-8.21-1.69s-5.47-4.05-7.48-2.5c4.74,4.18,9.91,7.95,14.85,11.71-2.3,2-7.26,2.27-12.44.58a26,26,0,0,1-3.88-1.62c-.64-.33-1.27-.69-1.89-1.08a20.34,20.34,0,0,1-1.74-1.31,20.75,20.75,0,0,1-5.52-7c.26-1.93,2.9-2.76,5.65-3.3s5.62-.78,6.43-1.39c-1.28-.12-3.56-2-5.43-4.1s-3.1-4.48-2.7-5.31l5.15,2.84c-.51-3.41-3.49-4.78-6.21-6.56A11.12,11.12,0,0,1,73,454.13a7.64,7.64,0,0,1-.67-5.56c-.81-2.66,3.69-10.5.23-9.45C68,445.82,49.13,455.79,43,455L43,451.82c0-1.68.1-3.93.23-6.23C43.48,441,44,436,45,433.92c1.65-3.17,5.32-2.64,8.93-2.11s7.12,1.12,8.56-1.51c-1.6.46-4.45-1.1-5.46-1.84.35-3.22,5.18-.71,2.41-6.3-6.11,1.1-3.77-12.16-5.87-1A10.35,10.35,0,0,1,51.34,415a20.55,20.55,0,0,0-1.12-7.3c-1.56,1.68-5.25,1.13-9-.64a27.59,27.59,0,0,1-5.44-3.4,16.66,16.66,0,0,1-3.73-4.3c1.6,0,3.22-1.94,4-2.83-.66-3.2-1.1-6.06-1.4-8.73s-.29-5.2-.39-7.67-.21-4.89-.44-7.44a79.62,79.62,0,0,0-.77-8.24c1.3-1.33,2.22-7.26,5.2-5.19-.66-.77-1.59-1.47-2.39-2.44a8,8,0,0,1-1.72-4c4.55-7.62,1.65,8,7.43,1.89-1.79,0-3.25-2.19-4.61-5-.68-1.41-1.33-3-2-4.52s-1.35-3-1.94-4.3c-2.76,1-2.68,4.09-1.62,7.51A49.42,49.42,0,0,0,35.87,358c-3.8.51-7.91-1.26-11.66-4.84a34.22,34.22,0,0,1-5.31-6.62,37.16,37.16,0,0,1-4-8.81c-2.45-10.39,4.66-4.75,3.48-6.52,0-1.22,0-2.35-.11-3.4s-.14-2-.28-2.93a20.39,20.39,0,0,0-1.28-4.72,30,30,0,0,0-4.06-6.64,14.89,14.89,0,0,1-3.08-6.13C9.07,305,9.31,302,10.86,298c2.54-3.14,5-3,7.17-2.32s4.22,2,6,1.4a17.84,17.84,0,0,1-1.26,10.16c-.55,1.41-1.14,2.75-1.6,4.09a11.7,11.7,0,0,0-.62,4.1L21.66,312l1.28-3.45c1.4,2.7,2.73,8.2,1.34,11.22,1.08-1.33,1.66-4,2-7.46s.76-7.76,1-12.34l.21-3.48.41-3.53c.28-2.36.59-4.72,1-7a48.45,48.45,0,0,1,3.36-12.34c-1.24-2.77-2.28-7.5-4.5-5.69v4.72c-2.23,1.85-3.26-.5-4.06-2.67s-1.36-4.1-2.68-1.26c-.45-1.68-1-3.45-1.48-5.27a47.19,47.19,0,0,1-1-5.66,26.08,26.08,0,0,1,0-6,18,18,0,0,1,1.87-6.27l5.78-.44c-.81-.09-2,1.16-2.77,2.79a7,7,0,0,0-.55,5.09c-.42-1,0-2.33.74-3.74s2-2.92,3-4.47c2.06-3.1,3.54-6.31.53-9.22l-5.22,5.25c-.56-3.47-1.85-7.58-2.36-11.76s-.24-8.42,1.77-12.12c-6.29,2,.06,2-7.74,5.85,2.27-.69,3,.25,3,1.94s-.83,4.11-1.38,6.51c-1.21,4.78-2.25,9.16,2.76,6.19a13.14,13.14,0,0,0-7,7.05c-1.26,2.66-2.28,5.58-6.16,8.92,1.84.09,4-2.12,1.75,4.61a7.94,7.94,0,0,1,1.29,1.79,4.34,4.34,0,0,1-.22.44c.1-.13.19-.21.28-.34.21.34.27.38.1-.13a8,8,0,0,1,3.39-3c1.76,2.07,2,5.75,2.29,9.45s.24,7.36,1.06,9.31c-1.42,3.9-1.84-1.94-4.07,0,.82,2,1.6,3.9,2.54,5.84-2,0-4,2.56-5.55,3.87s-2.87,1.38-3.6-3.62l-1,8.76a27.74,27.74,0,0,0-1.8,4.07,26.73,26.73,0,0,0-1,4.45,18.3,18.3,0,0,0,.41,8.14C-.48,311.09,5,317.49,1.8,313.83l2.59,13.76-1,.16A56.57,56.57,0,0,0,4.65,338l1.08,5.22c.35,1.75.86,3.5,1.22,5.27a52.35,52.35,0,0,1,1.38,10.88A36.54,36.54,0,0,1,6.9,371.11c.87,2.18,1.71,4.4,2.51,7a36.78,36.78,0,0,1,1.64,9.47l-3.13,2.19A21.17,21.17,0,0,1,9.05,395c.27,2,.43,4.11.65,6.14.43,4,1.06,7.64,3.12,8.39-1.84,2.16-2.32,5-2,8.27a39.55,39.55,0,0,0,2.77,10.51c3.07,7.2,7,14.54,8.37,19.65l4.39-1.34A58.45,58.45,0,0,0,31,456.29c2,3.15,4.41,6.38,7.1,10L41.52,464a11.18,11.18,0,0,1,2,2.36,15.76,15.76,0,0,1,.82,1.42q.41.73.79,1.52a51.82,51.82,0,0,1,2.55,7.2l1.18,4c.41,1.37.81,2.79,1.37,4.15a45.34,45.34,0,0,0,3.92,8c-1.74.09-2.94-2.74-3.22-5.06a18.83,18.83,0,0,0,3.08,11c2,3.13,4.92,5.75,7.75,8.3,1.42,1.27,2.86,2.52,4.21,3.78s2.75,2.47,3.94,3.78a17.44,17.44,0,0,1,4.77,9.11,11.58,11.58,0,0,1,1.95,1.36A7.91,7.91,0,0,1,78,526.39a9.88,9.88,0,0,1,1.48,3.35,1.88,1.88,0,0,0-.67-.49,10.16,10.16,0,0,0,.79,1.07c.35,1.54.65,3.2,1.16,4.85a15.61,15.61,0,0,0-.7-4.31,43.78,43.78,0,0,0,7.51,6.71l-2.24,4c.24.19.4.38.67.57,1.24,3.79,3.49.83,4.67-2.75a18.26,18.26,0,0,0,5.18,1.89c-1.64,3.42.42,4.84,2.5,6.37a10.7,10.7,0,0,1,2.79,2.6,5.16,5.16,0,0,1,.26,4.49c2.18-.38,5.92,2.44,9.94,4.82s8.59,4,11.86,1.82c-.59.82-.12,1.89-1.6.63,2.38,3.34,4.74,6.81,9,7.41l-2.24,5.3q5.82,0,11.49-.1c1,3,1.71,5.15,1.27,6.64s-2,2.24-5.46,2.28c7.23,1.35,9.66,2.39,11.93,3.33s4.27,1.83,10.65,2.14l-2.46,2.63c3.35,2.09,11.11,1.54,11.44,5.32.92,2.59,3.72,5.29,7.6,8.22,2,1.44,4.13,3,6.59,4.47s5.13,2.91,7.88,4.43c11,6.18,24,12,33.42,19.13-.11-5.73,1.86-3.59,4.41-1.05s5.76,5.46,7.53,1.78c.41,2.77,3,5.17-1.23,6a29.69,29.69,0,0,1,7.55,2.09c2.18.81,4.08,1.74,5.91,2.51,3.66,1.51,7.08,2.49,11.85.2.66,2.74-3.37,2.9-2.6,4.62,1.06-.29,4.18-1.2,5,.53s-2.19,1.6-4.3,2.2c12,2.5,14.79-4.7,17.16-11.5a15.45,15.45,0,0,0,3.47,2.58,7.38,7.38,0,0,0,3.12.93c2,.1,4.06-.83,6.55-2.75,1.57,2.69,4.58,5.77-2.74,5.22l5.46,1.65c2.48.67,5.45,1.29,8.32,1.76a32.4,32.4,0,0,0,7.8.49c2.14-.24,3.62-1,3.87-2.45,1.12,1.57,5.64.95,6.76.38,4.54.59,7,1.06,9.46,1.22a83.74,83.74,0,0,0,9.41.22l-2.45-1c1.89-3.39,3.72-3.7,6-3.23s5,1.49,8.63,1.06l-.2.71a35,35,0,0,0,8.37,1.75,8.85,8.85,0,0,0,3.45-.62c1.75-.61,3.39-1.11,11.78,1.29l-1.22-4.26c.42-4.61,4-3.67,8.76-2a53.73,53.73,0,0,0,7.68,2.23,11.57,11.57,0,0,0,7.44-1L390,642.73c2.31-2,6.27.64,10.49,3.74l3.17,2.35c1,.74,2.08,1.44,3.07,2.06,2,1.23,3.78,2.1,5.15,2.12,1.31.56-1.56,1.63-3.06,2.54,14.93,2.6.72-5.9,10.58-9.23,2.55,2.52-.73,8.18,6.29,7,2,.75,6.46-2.86,11.57-6.34a41.16,41.16,0,0,1,8-4.76,16.6,16.6,0,0,1,4.16-1.17,11.77,11.77,0,0,1,2.08-.1,10.71,10.71,0,0,1,2.05.23c-1.37-.76-2.72-1.53-3.24-2.54s-.17-2.15,1.78-3.8c3.29-1.61,8.67-1.16,13.78-1.5,5-.51,9.75-1.85,11.37-6.51a2.6,2.6,0,0,1,2,1.2c.55-.49,1.22-1,1.95-1.56s1.5-1.19,2.33-1.83c1.65-1.27,3.45-2.62,5.16-4a42.12,42.12,0,0,0,4.56-4.16,9.7,9.7,0,0,0,2.38-4.09c2.81,2.73,6,2.67,9.18,1.24a23.69,23.69,0,0,0,4.81-3c1.55-1.29,3.08-2.75,4.55-4.19,2.95-2.9,5.73-5.65,8.15-7.07s4.56-1.46,6.4,1.44l7-5.06,1.75-1.26,1.69-1.35,3.38-2.69.46,1.4a35.56,35.56,0,0,0,5.69-4.21,16,16,0,0,0,3.28-4,22.5,22.5,0,0,0,2.45-7.66c2.55-.86,1.93,1.3,2.22,2,7.19-3.89,10.78-6.57,13.42-9.77a26,26,0,0,0,3.4-5.63c1-2.25,1.94-5.09,3.11-8.63l4.12,2.21c.36-2.22,5.82-4.91,11.75-9.45,1.5-1.11,3.06-2.31,4.6-3.61a37,37,0,0,0,4.44-4.24,35.58,35.58,0,0,0,6.66-10.46,3,3,0,0,1,.45,2.6,23.93,23.93,0,0,1,1.62-3.1c.62-1,1.23-2,1.94-3a48.33,48.33,0,0,1,4.77-5.59c1.74-1.79,3.64-3.49,5.46-5.21s3.55-3.47,5.21-5.17a60.37,60.37,0,0,0,4.5-5.06,24.71,24.71,0,0,0,1.74-2.52,18,18,0,0,0,1.18-2.58,10.15,10.15,0,0,0-1.65-10.3l1.26-6c.38-2,.67-4.05,1-6.06-4,6.29-5.44,4.82-6.25,2.49s-1.52-5.78-4.09-3.81a13.31,13.31,0,0,1,6-6.58c2.27-1.18,4-.88,2.7,2.46l-1.24.6c3.11,3.17,5.95-.56,8.64-4.72,2.53-4.24,4.77-8.94,7.32-7.54,3.21-6.7,6-13.5,9.21-20.14.39-.83.8-1.66,1.17-2.5l1.07-2.53,2.17-5,2.2-5,1.11-2.51,1-2.54c2.61-6.79,5.39-13.51,7.42-20.41l1.6-5.14c.51-1.72,1.08-3.42,1.46-5.16q1.25-5.19,2.32-10.38-3.55,1-7.08,2l1.09-4.71.55-2.36c.17-.79.29-1.58.44-2.37.93-1.13,2.33-1.79,3.33-1.3a2.27,2.27,0,0,1,1.11,1.68,8.77,8.77,0,0,1-.18,3.89,3.7,3.7,0,0,0,1.59-3.18,10.53,10.53,0,0,0-.84-4.06c-1.06-2.68-2.83-5-3.52-5.17,2.26-6.52,4-5,5.23-2.32s2,6.6,2.37,4.51l.32-5.76-.95,1.19a21.16,21.16,0,0,0-1.59-3.09,23.22,23.22,0,0,1-1.51-2.61c-.85-1.83-1.27-4.06-.74-8.19,1.8-5.15,4.3-2.39,4.73-4.46.48,0,.78-.65.37-3.21L685.16,326q-2.7,2.42-5.4,4.77c-1.18-2.75-1-5.61-1.29-7.1s-1.09-1.59-4.08,1.13c2.31-2,3.59-5.84,4.35-10.58.19-1.18.34-2.42.46-3.7a35.27,35.27,0,0,0,.2-3.94c0-2.68-.08-5.45-.23-8.2l-.24-4.08c-.08-1.35-.18-2.67-.36-3.95l-.83-7.14c-.46-4.31-.59-7.6-.14-8.95a32.81,32.81,0,0,1-4.91-10.9c-.25-1-.45-1.94-.67-2.93s-.45-2-.66-3c-.4-2.07-.74-4.23-1.09-6.51-.61,2.47-6.08,4.9-6.91-2.86,3.08.05,4.77-.86,5.67-2.42s.88-3.73.73-6.18a69.17,69.17,0,0,1-.36-7.8,17.86,17.86,0,0,1,.6-3.86,10.12,10.12,0,0,1,1.66-3.5c-1.92,3.59-3.92-1.82-6.08-6.68s-4.75-9.09-7.09-3.57c-1.28-6.54,4.15-1.8,5.14-7.52a37.11,37.11,0,0,1-3.2-5.38q-.69-1.42-1.3-2.9c-.42-1-.87-2-1.26-3a128.59,128.59,0,0,1-4.13-12.92c-1.44-4.44-2.85-9.05-4.53-13.65-.21-.57-.42-1.15-.65-1.72l-.74-1.68q-.76-1.68-1.59-3.33a73.68,73.68,0,0,0-3.64-6.48c-1.53.5-2.13,4.55-6.15,2,.38-2.17.64-4.29.9-6.45l.76-6.51c-1.34-1.5-3.76-1.11-5.7-1.45s-3.34-1.44-3-5.86c-.57,1.56-1.45,3.87-3.3,2q-1.36-3.39-3-6.68-.79-1.65-1.64-3.27c-.56-1.08-1.12-2.17-1.78-3.19-2.55-4.15-5.32-8.19-8.22-12.15-3.06-3.84-6.28-7.57-9.53-11.28l-1.22-1.39-1.29-1.33-2.58-2.66-5.15-5.32-2.57-2.67-2.67-2.57q-2.65-2.58-5.25-5.22c-3.38-3.6-7-7-10.31-10.64-1.68-1.82-3.3-3.71-4.92-5.61s-3.3-3.74-4.88-5.71-3.11-4-4.59-6.14c-.73-1.08-1.49-2.12-2.24-3.17s-1.49-2.14-2.21-3.25c2.44,5.67-.62,3.74-3.95,1.4,1.68,2.17-2.4,3.09-3.27,5.12l-4.76-7.28c-1.62-2.42-3.37-4.7-5.08-7.08-2.92,1.63-6.6-.73-10.15-3-3.65-2.12-7.16-4.19-9.34-2.18l4.94,1.77c-4.69,1.1-4.56,5.54-4.09,10.45a50.06,50.06,0,0,1,.42,7.53,10.52,10.52,0,0,1-2,6.33,5.86,5.86,0,0,1,6,2.07,20.38,20.38,0,0,1,2.25,3c.36.57.71,1.16,1.07,1.76l1,1.91a22.52,22.52,0,0,0,5.11,6.86,10.7,10.7,0,0,0,3.83,2,14.69,14.69,0,0,0,5.12.54c.87,3-3.42.77-3.62,3.2,4.54-1,7.84.69,11.81,6.16l-1.17.21c7.09,5.89,11.6,10.75,15.51,16.5l3,4.34,1.57,2.27,1.53,2.46c1.05,1.68,2.17,3.44,3.39,5.3l1.91,2.87c.66,1,1.38,2,2,3.09l2.29-3.93c2.37,3.81,1.9,5.39,2.37,7.66,4.11-.06,2.23-2.53.37-5.12a11.62,11.62,0,0,1-2-3.65c-.21-1,.36-1.83,2.5-2.11-.67,2.53.16,5.36,1.78,8.26a44.07,44.07,0,0,0,2.89,4.43l1.68,2.25,1.62,2.34a53.91,53.91,0,0,1,5.45,9.06,10.32,10.32,0,0,1,.89,4.15,6.27,6.27,0,0,1-1.1,3.62c3.65,5.65,3-4.39,6.7,1.31l-1.26,2.94,3.85-.41a7.39,7.39,0,0,1,.8,3,8,8,0,0,1-.26,2.63,6.32,6.32,0,0,1-2.26,3.48c-.31-1.06-2.08-2.28-2.82-3.16.1,3.27,2.34,6.54,4.6,9.31.56.69,1.13,1.35,1.66,2s1,1.23,1.37,1.77a5.71,5.71,0,0,1,1.33,2.49l-.77-3.23-.39-1.62-.46-1.59c.36.46.72.91,1.07,1.38l1,1.46q1,1.48,1.91,3c1.26,2.05,2.48,4.18,3.69,6.35.3.54.61,1.08.9,1.64l.81,1.69,1.62,3.41,3.26,6.86c2.06,4.62,4,9.26,6.37,13.61a76.08,76.08,0,0,0,7.23,12.45l1.45-1.92c.51.74,1,1.43,1.36,2.08s.69,1.28,1,1.86a21.36,21.36,0,0,1,1.22,3.11,17.26,17.26,0,0,1,.68,4.83,39.35,39.35,0,0,0,.36,5.16,35.81,35.81,0,0,0,2.2,8.25l-.6-.42a16.84,16.84,0,0,1,3.44,4.53,18.74,18.74,0,0,1,1.77,5.82c-1.53-1.64-2.29.37-3.12,2.21s-1.72,3.52-3.49,1.35c1.7,3.41,2.87,5.55,3.72,7a7.55,7.55,0,0,0,2.12,2.58c1.39,1,3.1,1.28,7.55,5.7l-3,2.74c1.76,1.47,3,2.25,4.05,3.6s1.84,3.27,2.67,7.09c-1.75-3-2.89-1.64-4.15-.39s-2.66,2.4-4.89-.85a23.14,23.14,0,0,0-1.22,5.69,22,22,0,0,0,0,2.52,20.16,20.16,0,0,0,.13,2.34,35,35,0,0,0,2.14,8c.42,1.18.81,2.3,1.08,3.37a8.72,8.72,0,0,1,.23,3.1c-.23,2-1.3,3.86-4,5.66,9.29,7.28,5-13.8,7-9.75,1.39-1.78,3.26-.34,4.55,2.24a16.44,16.44,0,0,1,1.56,8.84c-.12,2.61-2.94,4.8-6,7.86a23.79,23.79,0,0,0-4.2,5.42,16.68,16.68,0,0,0-1.42,3.54,24.49,24.49,0,0,0-.68,4.29c.17-1.25-.53-1.38-.44-2.62a6.9,6.9,0,0,0-.81,3.47,27.2,27.2,0,0,0,.46,3.63c.39,2.48.58,5.12-1.58,7.78,2.65,1.93,2.23,3.8,2.14,5.39s0,2.93,3.46,3.9c0-4,.08-7.9-.2-11.86a26.72,26.72,0,0,0,1.81,5.24c.73,1.8,1.57,3.69,2.2,5.7a19.24,19.24,0,0,1,1,6.45,12.73,12.73,0,0,1-.58,3.55A18.37,18.37,0,0,1,653,374a9.05,9.05,0,0,1-1.79-3.06c-.27-.66-.52-1.37-.74-2.05s-.47-1.36-.65-2c-1.23,1.43-1.22,3-1.17,4.59s.07,3.21-1.3,4.64c-3.42-1.15-3.1-4.67-2.51-8.92.42-4.27,1.17-9.29-1-13.08-1.73,1.48-.91,4.89-.56,7.42s.25,4.11-3.33,1.79c2.24,1.61,3.22,3.2,3.4,4.78a11,11,0,0,1-1,4.86,21.62,21.62,0,0,0-1.55,5.41,10,10,0,0,0,.16,3.11,12.94,12.94,0,0,0,1.25,3.5l-4-1.49c.33,1.44,1.63,4.62.94,7q-2.15-2.85-4.33-5.63c1.49,3.84-.3,6.82-2.32,9.63s-4.58,5.36-4.25,8.84c1.87-6.51,3.33-6.9,4.9-6.24s3.24,2.4,5.59,0c.29,9-3.11,10.68-7,12.25a19,19,0,0,0-6,3.29c-1.89,1.72-3.53,4.36-4.6,8.95.26-2.57,5.57-8.12,6.12-3.7a39.23,39.23,0,0,1-3.68,4.83,13.87,13.87,0,0,1-4.47,3.33c-1.93,5.88-.74,5.89,1,5.12s4-2.32,4.23.66c-3.22,1-3.31,2.61-2.68,4.74.3,1.06.84,2.27,1.16,3.54a10.15,10.15,0,0,1,.31,4.09l-4-1.77c-4.33,5.92-2.68,7.75-1.06,9.44a4.56,4.56,0,0,1,1.7,2.87c.07,1.23-.73,2.87-3,5.4q-1.35-3.86-2.74-7.63l-1.81,6.69-3.71-3.53c-.09,4.06-.64,6.52-1.71,8.65a13.91,13.91,0,0,1-2.14,3.06c-.89,1-1.93,2.15-3.15,3.5,3.49.12,6.28,4.83,3,10.51-2.22,1.22-2.81.1-3.31-.24s-1,0-3.32,3.93c-.56-1.6-1.24-3.33-1.1-4.78a3,3,0,0,1,1-1.94,5.78,5.78,0,0,1,2.83-1.35c-1-1.1-1.28-3.15-2.27-4.24-4.77,2.48-6.82,9.38-8.58,12.12a7.85,7.85,0,0,1,2.78-2.34l-1.14,7.1c-.21,1.18-.36,2.41-.62,3.57l-.75,3.52c-2.56.7-2.62-1.4-2.71-3.44-1.19,2.39-.69,5-2.74,8.41-2.2-2.95-5.23-5-3.34-10.28l-2.09,6.06c-.71,2-1.38,4.1-2.22,6.06-1.74-.31-7.28,2.16-7.27.12-3,1.89-4.14,6.24-6,10.52a41.42,41.42,0,0,1-3.1,6.38,17.56,17.56,0,0,1-2.11,2.75,11.75,11.75,0,0,1-2.8,2c.15.81-.05,1.93-1.07,3.64-3.33,2.7-7,4.66-10.56,6.94a25.15,25.15,0,0,0-4.92,4.21A21.35,21.35,0,0,0,537,543,25.65,25.65,0,0,0,535,546.4q-4.25-.64-8.39-1.35c-2.56,3,.13,3.38,2.44,4.23s4.21,2.18-.25,7.31c-6.42,7.18-6.07-2.25-9.75-1.75-.46,1.32-1,2.93-1.64,4.64a22.08,22.08,0,0,1-2.66,5.09,13.45,13.45,0,0,1-10.64,6C505.86,568,508.22,567.53,510.19,565.68Zm-88,42.56c.81-.68,2-1.9,3.13-2.74s2.38-1.31,3.4-.28c-.35,2.7-1.11,3.61-2.21,3.79S423.92,608.52,422.16,608.24ZM271.33,619.71c1.77-1,3.79.18,5.93,2.4A10,10,0,0,1,271.33,619.71ZM5.1,297.19a1.24,1.24,0,0,0,.2.24C3.41,302.18,4.15,300.5,5.1,297.19Zm2.68-9.85c-.51-1.06-1.12-1-1.76-.68,1,.8.9,3,.36,5.57C7.58,291.61,8.48,290.4,7.79,287.34Zm674.41,53c-.41.62-.86,1.23-1.29,1.85-.4-2.21-.47-3-.16-3.07S681.6,339.72,682.2,340.37Z"/><path class="cls-2" d="M289.6,617.6a5.06,5.06,0,0,1,.39,2.47C290.88,619.51,291,618.68,289.6,617.6Z"/><path class="cls-2" d="M555.38,525.57c.1,0,.16-.12.25-.17a2.18,2.18,0,0,0-.35-.76Z"/><path class="cls-2" d="M63.24,426.21a7.36,7.36,0,0,1-.74,4.1C63.52,430,64,428.9,63.24,426.21Z"/><path class="cls-2" d="M9.5,233.35,9,240c.54-3.12,1.73-4,2.77-5.36C10.81,234.5,9.08,235.36,9.5,233.35Z"/><path class="cls-2" d="M52.42,190.4c-.17-1,.7-1.73.58-2.74l-1.94-.6a7.13,7.13,0,0,0-.7,4.21C50.6,192.08,51.3,192,52.42,190.4Z"/><path class="cls-2" d="M24.88,231.25c3.67.48,3.57-3.57,4.17-8a3.47,3.47,0,0,1-.22.74C24.32,221.32,24.58,226.34,24.88,231.25Z"/><path class="cls-2" d="M29.22,222.28a16.18,16.18,0,0,1,1.07-3.9C28.49,217.27,29.41,219.83,29.22,222.28Z"/><path class="cls-2" d="M6.73,274.43c1.23-2-4.44-1.95-2.8-3-2.13-1.52-1.25,2.27.09,4.87S7.14,280.37,6.73,274.43Z"/><polygon class="cls-2" points="37.47 231.11 32.69 231.36 35.53 234.62 37.47 231.11"/><path class="cls-2" d="M26.78,263.12l2.52-6.47c-.76,0-1-1-1.16-2.09C27.19,258.66,25.44,263.05,26.78,263.12Z"/><path class="cls-2" d="M28.14,254.56c.5-2.14.79-4.21.31-5.57A23.67,23.67,0,0,0,28.14,254.56Z"/><polygon class="cls-2" points="36.41 240.38 35.03 242.09 33.58 246.65 36.41 240.38"/><path class="cls-2" d="M21.86,336.35c.58,2.46,1.09,4.92,1.73,7.36a1.18,1.18,0,0,0,1.67-.83,5.5,5.5,0,0,0-.05-3.33C24,337.86,23.29,335.13,21.86,336.35Z"/><path class="cls-2" d="M33.64,313.9c-.92,1.94-1.93,2.06-3.41,3.17l5.59.23Z"/><path class="cls-2" d="M35.45,334.79c1.59.66,5,10,4.16,1.07C38,335.26,36.36,328.17,35.45,334.79Z"/><polygon class="cls-2" points="53.22 442.17 52.45 440.47 44.09 444.26 53.22 442.17"/><path class="cls-2" d="M120.85,510.32c-3.47-7.61-5.57,2.15-8.11-5.31-2.9-.15,2.06,6.12-.62,5.78C117,513.26,117.81,515.9,120.85,510.32Z"/><path class="cls-2" d="M112.13,510.79a19,19,0,0,0-2.68-1.11A8,8,0,0,0,112.13,510.79Z"/><polygon class="cls-2" points="528.37 28.93 524.21 24.2 525.92 28.82 528.37 28.93"/><path class="cls-2" d="M515,28.86l1.74-5.76-5.69,2.75C512.37,26.3,514.85,27.2,515,28.86Z"/><path class="cls-2" d="M405.45,600.13l-.09,1.45c1.09,1.32,2.3,1.23,4.7.95C408.52,601.77,407,600.93,405.45,600.13Z"/><polygon class="cls-2" points="472.32 581.93 471.18 582.33 475.51 586.13 472.32 581.93"/><path class="cls-2" d="M518.22,546.16c-2,1.19-3.54,3.76-5.58,5C516.18,547.36,522.7,551,518.22,546.16Z"/><path class="cls-3" d="M583,199.54c0,.59,2.27-.5,2.72-.59C584.89,198.3,582.42,199.8,583,199.54Z"/><polygon class="cls-3" points="574.45 193.2 575.46 192.97 572.64 192.64 574.45 193.2"/><path class="cls-3" d="M571.46,185.32c-3.71,2.29,1.74,2.6.87,4.54l-.83.58,3.46-.61C573.79,188.34,570.8,187,571.46,185.32Z"/><path class="cls-3" d="M578.47,177.8c-1.45.86-1.68-.39-.11,1.16a3.89,3.89,0,0,1,.33-.33A2.18,2.18,0,0,1,578.47,177.8Z"/><path class="cls-3" d="M578.69,178.63c.43.78,1.09-1,0,0Z"/><path class="cls-3" d="M576.33,175.16l1.81.55c.83-.58.66-1.63,1.47-1.53C578.41,173.36,577.59,173.94,576.33,175.16Z"/><path class="cls-3" d="M573,175.25l.8.34C574.17,175.34,574.24,175.14,573,175.25Z"/><path class="cls-3" d="M575.52,176.31l-1.7-.72c-.58.41-1.87.92.66.38C573.26,176.32,574.49,176.12,575.52,176.31Z"/><path class="cls-3" d="M575.18,177.22c-.63.95-.88,1.95-2.68,1.39C573.85,180.48,576.54,179.09,575.18,177.22Z"/><path class="cls-3" d="M567.17,186.52l-.86,1.27,1.62.19C567.13,187.88,568.4,186,567.17,186.52Z"/><path class="cls-3" d="M575.77,167.57a35.09,35.09,0,0,0-3.18,1.74l1.29.43C574.3,169.1,574.54,168.11,575.77,167.57Z"/><path class="cls-3" d="M572.59,169.31l-1.92-.64C570.91,169.81,571.68,169.74,572.59,169.31Z"/><polygon class="cls-3" points="568.5 176.77 572.33 177.56 568.31 176.41 568.5 176.77"/><polygon class="cls-3" points="574.1 162.93 576.33 162.85 572.89 162.79 574.1 162.93"/><path class="cls-3" d="M572.58,160c1.83-.12,2.49-1.76,3.7-1.61-.61-.72-2.28-.88-3.79-1C573.45,157.77,573.55,158.56,572.58,160Z"/><path class="cls-3" d="M570.24,157a11.27,11.27,0,0,0,2.24.36A5.76,5.76,0,0,0,570.24,157Z"/><path class="cls-3" d="M570.29,166.46c.48-.29,1.75-1,2.06-1.89l-2.21,1.4Z"/><path class="cls-3" d="M570.08,166l.07,0c-.14-.54-.23-.91-.26-1.08Z"/><path class="cls-3" d="M570.33,166.58a.93.93,0,0,0,0-.12C570.07,166.6,570,166.65,570.33,166.58Z"/><path class="cls-3" d="M569.45,172.78c-1.61-.19-3.61-1.11-5.1,1.1C566.18,173.76,567,172.49,569.45,172.78Z"/><path class="cls-3" d="M567.57,168.33l-.05,1.49a4.78,4.78,0,0,1,2.25-.76Z"/><polygon class="cls-3" points="566.57 168 567.57 168.33 567.59 167.78 566.57 168"/><path class="cls-3" d="M568.85,160.06a2.42,2.42,0,0,1-2-1.34,4.32,4.32,0,0,0,.14,2.48C567.77,161,569.24,160.81,568.85,160.06Z"/><path class="cls-3" d="M569.24,163c-.07,0-.11-.06-.18-.07C568.88,163.12,568.84,163.21,569.24,163Z"/><path class="cls-3" d="M564.26,152l-.39.28.42-.13Z"/><path class="cls-3" d="M566.58,161.5c-.25.73.46.83,1.32.86a3,3,0,0,1-.92-1.16C566.62,161.29,566.39,161.37,566.58,161.5Z"/><path class="cls-3" d="M568.4,155.56a8.4,8.4,0,0,0-.95,1.46C568.1,156.45,569.06,155.42,568.4,155.56Z"/><path class="cls-3" d="M569.64,162.53l.14,0C570.22,162.19,570,162.31,569.64,162.53Z"/><path class="cls-3" d="M569.64,162.53a7.1,7.1,0,0,0-1.75-.16,3.26,3.26,0,0,0,1.16.6A4.75,4.75,0,0,1,569.64,162.53Z"/><path class="cls-3" d="M548.12,155.89c2.25-.76,4.86-.11,3,2.06,2.14.59,9.12-3,12.78-5.68a4.27,4.27,0,0,1-3.67-.08c-1,.91-1.75,3.9-4.17,3.61-1.79-1.23.26-1.68,1.11-2.94-2.49,1.76-4.84-.58-8.76,1.36l2,.92C549.76,155.41,548.54,155.26,548.12,155.89Z"/><path class="cls-3" d="M564.57,154.77l.48.41c.16-.74.88-1.51,2.31-3a4.81,4.81,0,0,0-3.07-.08l.68,2.68Z"/><path class="cls-3" d="M566,157.51c-2.57.53-4.08-.33-6.39,1.45.76,1.46,2.43.29,3.83.8-1.55-2.23,1.62.19,2.29-2.12a3.13,3.13,0,0,1,1.15,1.08,7.09,7.09,0,0,1,.61-1.7l-.13.11h0c-.26.22-.43.33-.31.14,0,0-.05,0-.07,0a7.82,7.82,0,0,1-.95.24c.22-.91.58-.35.95-.24l.38-.11,0,0-2.27-2C564.92,155.83,565.24,156.46,566,157.51Z"/><path class="cls-3" d="M558.65,174.57a1.76,1.76,0,0,1,.53-.29C558.82,174.23,558.6,174.25,558.65,174.57Z"/><path class="cls-3" d="M559.71,173c.4.05,1.42-.17,1.4.51-.53.79-1.16.44-1.94.78.78.1,2.21.56,3-1l-.4,0c.44-1.31,3-3.75,3.36-3.71A34.35,34.35,0,0,0,559.71,173Z"/><path class="cls-3" d="M562.19,165.42l-2-1.6-1.68,1.85,1.23-.54C559.73,166.5,561.17,165.65,562.19,165.42Z"/><polygon class="cls-3" points="565.37 151.3 568.02 150.59 563.97 150.79 565.37 151.3"/><polygon class="cls-3" points="564.03 148.75 566.28 147.99 564.68 147.8 564.03 148.75"/><path class="cls-3" d="M517.58,18.7l.6-.51A.78.78,0,0,0,517.58,18.7Z"/><path class="cls-3" d="M510.26,16.1l.77,1.49C510.84,16.85,510.6,16.27,510.26,16.1Z"/><path class="cls-3" d="M538.44,83.27c1.73-1.68,4.56-3.9,2.11-2.83l-2.32,1.21C538.9,82.09,538.81,82.67,538.44,83.27Z"/><path class="cls-3" d="M506.28,43.18l-1-.48L509,45.6C508.19,44.87,507.27,44.06,506.28,43.18Z"/><path class="cls-3" d="M490.43,32q.88,0,1.8,0A2.24,2.24,0,0,0,490.43,32Z"/><path class="cls-3" d="M555.94,28.55l1.55-2.27C556.37,25.91,556.44,27.34,555.94,28.55Z"/><path class="cls-3" d="M552.57,121.75a3.88,3.88,0,0,0,.73-2.46C552.26,120.74,550.46,122.28,552.57,121.75Z"/><path class="cls-3" d="M533.74,53.19a11.11,11.11,0,0,0-.83-1.94A6.9,6.9,0,0,0,533.74,53.19Z"/><path class="cls-3" d="M552.45,117.1a7,7,0,0,0-.42.62,2.33,2.33,0,0,1,1.27,1.57C554.08,118.21,554.42,117.19,552.45,117.1Z"/><path class="cls-3" d="M643.34,59.87a2.37,2.37,0,0,1,.1.36C643.57,59.9,643.49,59.86,643.34,59.87Z"/><path class="cls-3" d="M660.71,93.32a2.74,2.74,0,0,1-1.12-.16C659.73,93.4,660.05,93.48,660.71,93.32Z"/><path class="cls-3" d="M560.94,137.59c.38.51.3,0,0,0Z"/><path class="cls-3" d="M552.4,144.06a3.2,3.2,0,0,0-1.27.23A4.14,4.14,0,0,1,552.4,144.06Z"/><path class="cls-3" d="M535.16,117.3s0,0,0-.05C534.74,117.6,534.82,117.53,535.16,117.3Z"/><path class="cls-3" d="M560.17,138.87a3,3,0,0,0,.44-1A3.17,3.17,0,0,0,560.17,138.87Z"/><path class="cls-3" d="M561.27,138.31a5.8,5.8,0,0,0,0,.59C561.66,138.81,561.89,138.65,561.27,138.31Z"/><path class="cls-3" d="M560.5,136.85a1.52,1.52,0,0,1,.1,1c.12-.18.24-.27.33-.28A7.67,7.67,0,0,1,560.5,136.85Z"/><path class="cls-3" d="M594,50.8a2.37,2.37,0,0,1,0,.27C594.92,50.24,594.61,50.31,594,50.8Z"/><path class="cls-3" d="M507.5,78.2s.11,0,.15.05l0-.16Z"/><path class="cls-3" d="M504.43,75.62c3.66.49,3.51,1.21,3.27,2.47q3.31-1.83,6.71-3.45A87,87,0,0,1,504.43,75.62Z"/><path class="cls-3" d="M534.66,23.59q-1.38-1.69-2.9-3.43c2.32-3.28,5.23-.92,2.07-5.43.34,4.41-2.15,3.8-4.64,3.19s-5-1.22-3.51,3.56q-1.11-1.27-2.29-2.57c.5.25.37-.3.86-.05-2.42-2.86-2.45-1.32-2.23.67s.61,4.39-1.49,3.09c-1.59-1.19-3.28-3-3-3.91A16.87,16.87,0,0,0,516,20.29c-.94-.48-1.75-2.24-.77-1.75l-4-.64-.16-.3c.37,1.47.69,3.66.83,4.59-2.07-1.92-.25-1-1.4-2.44a13.93,13.93,0,0,0-.46,1.92,8.67,8.67,0,0,1-2.34-3.77c-.12-.82.44-1.09,1.42-.61-4.72-5.86-5-5.4-5-4.41,0,.49,0,1.1-.57,1.08s-1.75-.68-4.33-2.79q.7-.31,1.46-.6a31.53,31.53,0,0,0-6.61-6A63.61,63.61,0,0,1,487.38,0c1.28,1.22,5,4.36,8.05,7.36s5.59,5.89,5.35,6.88c-1.41-1.12-2.83-1.89-2.33,0-3.42-4.19-4.08-3.66-5.69-4L488,4.6c-.76.92,2,3.89,3.14,6.09-2.63-1.27-7.3-6-11.46-10-2.45-1.13,0,.94,2.54,3.21s5.11,4.74,3.59,4.62c-5-3.2-5-1.59-4.33,1l.19.25c-.76-.14-1.78-1.13-2.82-2.27A21.75,21.75,0,0,0,476,4.6l5.83,6.58c0,.29-1.59-1.29-2.41-2.1a46.35,46.35,0,0,0,4.49,4.71,35.86,35.86,0,0,1,4.47,5c3.59,3.41,1.4,2-.47,1.29s-3.42-.87.85,3.51c-1.46-.74-3.8-3.32-6.06-5,3.22,4,4.39,5.41,5.75,7s2.89,3.17,6.59,6.86a22.48,22.48,0,0,0-2.82-.31c1.77.58,4.16,2.42,6.66,4.54s5.1,4.56,7.4,6.61l4.22,2.06q1.89,2,3.7,3.87A38.78,38.78,0,0,1,509,45.6c.51.44,1,.86,1.46,1.22-1.72-.52-5-2.76-8.28-5.39,1,.36,2,.8,3,1.27-3.57-2.77-7.58-6-10.79-8a14.8,14.8,0,0,1,1.89,2A19.56,19.56,0,0,0,494,34.92c-.54-.28.82.87,2.41,2.28q-2.93-1.64-5.82-3.18l2.48,1.72a13.75,13.75,0,0,0-2,2.24c3.59,3.32,7.72,6.61,11.36,9.52S509.2,52.93,511,55a33.85,33.85,0,0,0-5.43-2.39c-1.67-.57-3.38-1-5.71-1.92,2.21.26,1.38-.74-.07-2.23s-3.49-3.45-3.46-4.47c0,1-2.47-.31-3.42-1.07q3.3,3.57,6.41,6.65c-3.88-1.61-2.5-.15-3.58.56,7.11,1.73,6.22,5,9.06,7.23-2.33-.43-4.93-1.44-5.23-3.59-2.24.49.23,2,2.69,3.23s5,2.33,3.18,3.06c-.25-.51,0-.71-1.26-1.14a2.87,2.87,0,0,1,1.66,2.52c-.1.73-.75,1.23-1.87.78l-.25-.54a18,18,0,0,0,3,6.81c1.65,2.27,3.8,3.83,6.38,3.45a59.24,59.24,0,0,1-7.36.89,56.91,56.91,0,0,0,9.51.8c3.08,0,6-.4,8.95-.66-4.25,1.17-13.37,6.51-16.53,5.23-.32.91-.74,1.85,1.21,2.58.42-.63,5.52-3.3,6.11-2.89-4,3.29-2,2-5.17,5.39.64-.95,7.31-2.75,7.48-1.7-1,.22-6.29,2.53-7.1,2.43l7.22,0c-1.37-.16-5.38,2-6.95,3.18,1.14-.73.69,2.13,1.56,2.53l1.07-1.59c.1,3.09,9.89-.73,10.6,2.09-1.42.18-8.31,2.29-8.57,4,3.46-.62,16.58-3.21,20-1.78l-1.67,1.17,2.81,1a168.58,168.58,0,0,1-21.38,1.27c-1.07,1.58-2.07,1.12-1.31,2.58a2.26,2.26,0,0,1-3.22-.23l.26,4c3.7-1.61,4.82,1.25,7.9-.09l-5.39-2.35c3.7-1.61,11.54-1.9,11.85.87-1.25,1.22-6.88,2.11-8.12,2.65,1.42-.17,3.4,1.43,2.57,2L517,105c-.87,1.95,5.87.36,2.93,3.43,0,.67-4.17,3.61-1.91,2.85,3.93-2.61,17.14-7.92,20.61-8.54-.21.32-2.93,4.63-4.79,6.12-3,2.26-8.58,1.67-11.15,3.6a8,8,0,0,1,3-.26c-.64.95-3.28,1-2.31,2.12,3.9-1.25.72,2.82,3.47-.62,1.59.87-.26,1.68.5,3.14,2.28-1.44,8.91-1.87,10.51-1a10.77,10.77,0,0,0-2.67,1.44c.68,2.79-.5,4.88.42,7.37-.84.59-1.49,2.21-3.33,2.34.81.09,2.23-.08,2.62.65-2.73,2.75-1.17-1.51-4.7,1.15,2.25-.76,3.83.79,5.63,1.35,3.3-1.66-.31-2.77-2.12-3.32,4.72-1.83,10.4-1.84,13.58-.1,2,1.6-2.71,2.07-1.9,2.17.67,4.18,9.52.11,7.35,4.63-2.51,2.43-6,2.37-8,3.49-1.79-1.24.92-3.31.36-4.4l-.88,1.95c-1.21-.15-2.4-1-1.76-1.92-2.29,2.11,2,6.73.66,10.67,1.21.14,2.61.65,3.65-.25l-.78-.78c2.09-1.8,4,.48,4.71-1.15,2.2.61,5.42,1,4.74,3.3l-3.3,1.66c1-.43,1.59-2,.35-2.05,1.81.15-3.59,4.53,1.22,3.6l1.89-2.17c2.22.6,6.47.77,6,2.76,3.11-2-.53-.21,3-2.87-4.56,2.88-1.35-4.12-5.93-.55,4.15-2.93,1.18-2.74,4.52-5.77-1.11.48-2,1.37-1.91-.17a7.4,7.4,0,0,1-1.11.09.61.61,0,0,1,0-.12l-.11.12c-.19,0-.23,0,0,0a5.06,5.06,0,0,1-1.46,1.34c-2.85.35-3.59-1.79-5.21-2,.24-1,1.43-.17,2.47-1.07L553.4,137c2.47-1.08,3.37-3.7,5.56-2.42l-.53-1.71c1-1.53,1.07-3.09-.31-3.52.24-1-3.55-.91-1.32-1l-2.57-2,.62-.27c-.68-2.7-6.22-3.7-2.82-8.41-1-.62-2.09-1.22-1.94-2.95l2.07-1.12c-1.19-.82.88-4.19-1.57-3.79,5.39-3.47-.81-5.91-.54-8.27l-2.87,1c-.36-1.41-1.67-2.39-3.46-3.63L541.26,100c-2.62-.65.35-4.4-.79-6.59,1-.22,1,.46.57,1.1,4.62-4.92-6.35-4.17-3.17-8.24-1.15-.26-1-.83-.55-1.51a.25.25,0,0,0,.19.1.66.66,0,0,0-.06-.27c.33-.44.72-.91,1-1.37a5.77,5.77,0,0,0-1.06,1.24A4,4,0,0,0,535.65,83l2.58-1.34c-.06,0-.07-.09-.14-.13.73-1.08-1.49-.07-3.38,1.09a6.54,6.54,0,0,0-2-.31c4.13-2.25-2.18-1.29,2.16-3.85-2.45.4-3.08-2.9-8-1.44.61-.26.83-.59,1-.22.24-1,.47-2-1.14-2.18l3.3-1.66-5.27.06c1.68-1.85,2.73-2.76,5.77-2.74-4.84-.46-2-.54-6.78-1.05l2.38-.43c-.14-.22-1.07-.38-1.77-.61s-1.13-.51-.18-.77c2.1-.83,1.83-2,1.42-3.36s-1-3.08,1.22-3.21c-4.26-1.32-3.41-1.28-2.31-1.17s2.47.41-1-1.11a28.11,28.11,0,0,1,5.13,2.12c-1.22-.91-.51-.9-.24-1s.09-.34-3.17-2.44c2.23,1.16,3.38,2,4.69,2.68-.51-.32-2.07-1.36-.74-.67s2,1.21,3,1.84c-.58-.72-7.81-5.3-14.61-9.62,2.89,1.19,2.38.75-2.43-3,2.15,1.22,4.41,2.54,5.55,3.92.07-.13.64-.25.5-.8s-1-1.63-4-4c1.43,1,.16-.36-.58-1.07-.1-.9.42-.51-.61-2.16l-.88-.54c-3.81-3.44-4.35-4.13-4.08-4.13s1.36.71.69-.23l.79.74c1.42.83,1.71.9,1.55.6s-.76-.92-1-1.3c-.06-.18.65.23,3.83,2.84l-4.77-4.62c-4.9-4.89-2.72-3.2.14-.79s6.33,5.54,5.29,3.95l-2.85-2.68c-1.11-1.49,2.5,1.93,6.27,5.79s7.76,8.16,8.43,8.79a14.71,14.71,0,0,1,1.38,1.78c2.76,2.84,1.54,1.44-.3-.75S526,48.61,526,48.15c1.31,1.51,2.79,3.36,4.09,4.94a38,38,0,0,0,2.8,3.2c1,1.21-.62-1.08-1.61-2.85s-1.35-3,.81-.26c-1.57-2.17-3.31-4.4-3.83-5.81.19-.23,2,1.94,3.23,3.32s1.8,2,.48-1.06a17.81,17.81,0,0,1,1,1.62c-.32-1.45.57-2-.22-5.13,2.76,6.16,2.87,4.92,3.43,3.73s1.34-2.41,2.14,2.69l1.71.05v1c1,1,1.47-1.19,2.26-3.25a4,4,0,0,1-.17,2c.78,1.24,1.09,1.72,1.64,1.44a4.64,4.64,0,0,0,1.07-1c.64-.47,1.45-1.13,2.47-2l-.66,2.92c1.27-1.4,3.11,5.95,7.31,3.69a3.22,3.22,0,0,1-.76,1.15c4.6-2.15,5.77,10.6,10.46.75l3.15-1.77c-2.72-1.79,1.93-4.31,1.27-6.43,1.37-.21,2,4.11.39,4.16l-.05-.59c-2.31,5.18,3.08,3.13,1.78,6.75,6,1.68,10.7,6.55,16.12,8.61l.75-4.38,1.84.88c.18,1.13-.41,3.48-1.72,2.86-.06,2.6,3-1.22,3.29-2.11,2.12,2.58-2.66,4.51-1.87,4.88l1.22.06-.09-.57c1.47-1.4,2.15-3.18,3.73-2.43.76,1.18-.32,2.75,0,3-.1.3,0,.48.59.33l2.3,1.16.13-3.61c1.61-1.27,2.22.93,2.34-3.17-.27,6.29,8.33,5.06,8.74,7.17,2.3-1.9,3.76-1.36,5.5-.46-.23-.84.73-4.62,2.16-3.65-3.11,7.44,1.8,4.27,1.25,10.19.07-4,4.8.6,4.72-5.17,1.11,1.06-.87,2.88-.46,5,4.13-1.91,6.29,4.22,10.5,4.52.39-1,.25-2.73,1.58-3.94l.39,5.69c.93-.23,2.63-5.54,2.87-1.6.08-.91.21-2.27.83-2.42,6,7.41,16.88,1.17,21.56,12.91-.4-2.29.36-2.25,1.18-2.05-.37-.64.83-2.47,1.18-3.86l2,4.85c1.84-3.57,3.55.9,5.09-2.59l-1.24.31c2.78-3.8,1.23-10.08,3.25-15.47-3.13,4.33-1.64-8.49-6.45-2.41-.18-1.3,1.06-1.6,1.18-3-1.41,2.13-2.34,2.36-3.41.84l.35-.53c-4.18-.76-5.12-3.63-9.1-6.65l-.56,2.81c-.84-.68-.77-1.59-1-2.42-2.47,3.72,2.63,1.13.12,5.31.55-5.91-6.76-2.34-5.56-8.86-1.47-.53-.6,3.27-2.07,2.74l.17-1.82-1.1,2c-.85-.68-.64-3-.2-4.4.18.25.8-.18,1.1-.22-.6-2.41-3.78-.5-4-1.29l1.08,1.51c-4.57.23-8.77-3.62-13.82-1.49L626.48,60c-3.77,1.36-1.92-2.19-5.56-2.19l.22-.26c-1.08,1-2.17,1.4-3,1,1.32-1.22-.59-3.41,1-4.7-4.08,1.45-2.26,1.45-6,5.47L613.4,57c-1.36,1.67-1.76,2.66-3.58,2.66,1.94-1.37,0-3.56,2.32-5.46-1.9-5.76-6.65,3-6-4.31-3.52,5.32,1.89,4.23.59,5.19.1,2.15-2.75,3.94-3.64,3-1.05-.5.62-8.1-2.17-8.9.27.12.43-.32.7-.2-.54-1.83-2.69,1.35-3.15-1.5-1.89,3.3-1.58-.75-3.28,3.69l2.88-.2c-1.83.7-4.92,5.53-6.44,2.19A9,9,0,0,1,594,50.8c-.25-1.56-1.62.44-1.89-1.17,1.7-4.44,3.4,0,6.08-2.89-.11-2.15-4,2.3-1.6-2.33-3.17,5.84-2.46-1.69-5.9,2.43l1-2.66c-.44.32-1.47,1.4-2,1.15l2.15-3.18c-2.51,2.48-2-3.59-4-2.44,3.06.93-.4,3.48.23,5.88-4.95,2.37.2-7.79-4.43-7.88.69-.19,1.59,2.33.29,3.29a6.71,6.71,0,0,1-1.34-3.8c-3-.36-.5,2.92-2.23,4.19.15-3.61-1.81.89-3.38,1.53l.9-2.75c-2.58-2.81-2.74,5.45-4.88,2.37l2.47-3.41-1.81.49,1.35-3c-2.39,1.78-2.69,1-4-.39-.27,2.05-1.86,4.91-3.29,4.53-.41-1.95,1.4-2.43-.71-2.7,1-1.57,2.23-3.56,2.25-.75.39-.87,1-1.57,1.4-2.43-.41-2.22-2.45-1.29-3.18-1.5a1.28,1.28,0,0,1,.57.9l-4.15,2.85A3.23,3.23,0,0,1,565,34.55c-.68.11-1.51,1.24-2.44,1.19,1-2.16,1.68-4.48,3.24-5.13l-3.57,1.57c.14-1-.52-3.14.11-3.84-1.09-1.82-5.17,3.09-6.62.69a2.07,2.07,0,0,1-1.13.92,5.82,5.82,0,0,1-1.17-1.13,5.25,5.25,0,0,0-.61-.66,13.07,13.07,0,0,0-1.09-.74,5.48,5.48,0,0,0-5.45-.43q-.75-2.47-1.72-5c-1.67-.05-.94,1.59-.59,3.19s.37,3.17-1.94,3.24c-3.23.35-1.19-4.19-2.43-5.84a15.13,15.13,0,0,1-3.19,2.73c-1.22.56-2.52.36-4.45-2.09C532.81,22.65,533.75,23.62,534.66,23.59Zm-33.75-9.25c0-.65-.59-2.81,1.67-.26C505.22,18.46,503.1,16.08,500.91,14.34Zm-1.1,27.53c-1.47-1.16-1.07-1.43.22-1.14C500.55,41.43,500.61,41.86,499.81,41.87Zm56.53,90.36h-.15C556.89,130.91,556.6,131.4,556.35,132.23Zm-.43,2.37a1.74,1.74,0,0,0,1.17-.34c-.73.13-.95-.28-.95-.85C555.48,133.83,555.09,134.27,555.91,134.6Zm38-63.28-.14-.84C594.94,70,594.46,70.61,594,71.33Z"/><path class="cls-3" d="M492.28,33.37a22.47,22.47,0,0,1,2.18,1.29A4.5,4.5,0,0,0,492.28,33.37Z"/><path class="cls-3" d="M555.66,29s0,0,.05.06a3.49,3.49,0,0,0,.23-.48Z"/><path class="cls-3" d="M521.55,113.77a3.31,3.31,0,0,1,1.1-1.3C522,112.71,521.49,113.1,521.55,113.77Z"/><path class="cls-3" d="M564.43,143l-1.18-1c.36.54-.15,1-.46,1.45C563.41,143.2,564.23,142.62,564.43,143Z"/><path class="cls-3" d="M551.83,160.09c.4.05.18.37.59.41l1.24-.53A1,1,0,0,0,551.83,160.09Z"/><path class="cls-3" d="M555.89,147.59c-2.24,1-1.17,1.45-.41,2.14,0,0-.07-.09-.06-.15C558.69,148.61,557.29,148.09,555.89,147.59Z"/><path class="cls-3" d="M555.64,149.9a1.12,1.12,0,0,1,.36.77C557.31,150.28,556.14,150.25,555.64,149.9Z"/><path class="cls-3" d="M558.36,136.45c-.43.63,3-.87,2.17-.28C563.59,135.51,556,134.81,558.36,136.45Z"/><polygon class="cls-3" points="548.68 151.17 551.37 149.78 548.92 150.17 548.68 151.17"/><path class="cls-3" d="M548.12,143.59l-.25,1.68a1.24,1.24,0,0,1,1.1,0C548.74,144.38,548.93,143.24,548.12,143.59Z"/><path class="cls-3" d="M549,145.26a1.05,1.05,0,0,0,.9.92A2.09,2.09,0,0,0,549,145.26Z"/><polygon class="cls-3" points="547.11 149.62 547.54 148.99 547.37 147.94 547.11 149.62"/><path class="cls-3" d="M542.95,128.62l-1.38-1.19c-1,.22-1.45.85-.85,1.27C541.52,128.79,542.11,129.21,542.95,128.62Z"/><path class="cls-3" d="M537,136.12a6.6,6.6,0,0,1,1.88-1.48l-3.49,1.3Z"/><path class="cls-3" d="M534.52,132.06c-1,.22-3.61-1.11-2.66.71C532.88,132.55,534.26,133.74,534.52,132.06Z"/><polygon class="cls-3" points="530.19 107.77 530.38 108.14 536.06 105.88 530.19 107.77"/><path class="cls-3" d="M508.86,93.14c-.68,2.3,3.68-.94,2.6,1.33,1.51-.1.89-1.85,2.22-1.87C511.83,92.07,512.41,91.19,508.86,93.14Z"/><path class="cls-3" d="M513.67,92.59a6.51,6.51,0,0,0,1.07.21A3,3,0,0,0,513.67,92.59Z"/><polygon class="cls-3" points="663.94 97.85 664.7 99.45 664.59 97.25 663.94 97.85"/><path class="cls-3" d="M667.6,94.29l-1,3.79L668.45,95C668.13,95,667.52,95.19,667.6,94.29Z"/><path class="cls-3" d="M486.21,1.19l1,1.32a9.35,9.35,0,0,0,3.35,2.43Z"/><path class="cls-3" d="M517.85,14.78l-.53-.26q1.44,2.33,2.8,4.64Z"/><path class="cls-3" d="M541.5,17.91c-1.07-.51-2.31-.1-3.36-.61C540.48,17.41,541.69,22.59,541.5,17.91Z"/></g></g></svg>